<svg width="148" height="155" viewBox="0 0 148 155" fill="none" xmlns="http://www.w3.org/2000/svg">
<rect y="6.10352e-05" width="148" height="148" rx="41.0443" fill="#F0F9FF"/>
<g filter="url(#filter0_dd_6_228)">
<rect x="12" y="12.0001" width="124" height="124" rx="41.0443" fill="#38BDF8" shape-rendering="crispEdges"/>
<path d="M115.892 74.0087C115.892 68.3995 108.941 63.0836 98.2847 59.7871C100.744 48.8103 99.6509 40.0771 94.835 37.2811C93.7249 36.6253 92.427 36.3146 91.0095 36.3146V40.1634C91.7951 40.1634 92.427 40.3188 92.9564 40.6122C95.279 41.9584 96.2866 47.0844 95.501 53.6774C95.3132 55.2997 95.0058 57.0084 94.6301 58.7516C91.2828 57.9231 87.6281 57.2845 83.7856 56.8703C81.4801 53.6774 79.0892 50.7778 76.6813 48.2407C82.2486 43.0112 87.4744 40.1462 91.0266 40.1462V36.2974C86.3302 36.2974 80.1822 39.6802 73.9659 45.5483C67.7496 39.7147 61.6015 36.3664 56.9051 36.3664V40.2152C60.4403 40.2152 65.6831 43.063 71.2505 48.258C68.8596 50.7951 66.4687 53.6774 64.1974 56.8703C60.3378 57.2845 56.6831 57.9231 53.3359 58.7688C52.9431 57.0429 52.6528 55.3688 52.4478 53.7637C51.6452 47.1707 52.6357 42.0447 54.9412 40.6812C55.4535 40.3705 56.1196 40.2325 56.9051 40.2325V36.3837C55.4706 36.3837 54.1727 36.6943 53.0456 37.3502C48.2467 40.1462 47.1708 48.8621 49.6471 59.8044C39.0247 63.1181 32.1082 68.4167 32.1082 74.0087C32.1082 79.6179 39.0588 84.9338 49.7154 88.2303C47.2562 99.2071 48.3492 107.94 53.1651 110.736C54.2752 111.392 55.5731 111.703 57.0076 111.703C61.704 111.703 67.852 108.32 74.0684 102.452C80.2847 108.285 86.4327 111.634 91.1291 111.634C92.5636 111.634 93.8616 111.323 94.9887 110.667C99.7876 107.871 100.863 99.1553 98.3872 88.213C108.975 84.9165 115.892 79.6007 115.892 74.0087ZM93.6566 62.4968C93.0247 64.7232 92.2392 67.0187 91.3511 69.3142C90.6509 67.9335 89.9166 66.5527 89.1139 65.172C88.3283 63.7913 87.4915 62.445 86.6547 61.1333C89.0798 61.4958 91.4194 61.9445 93.6566 62.4968ZM85.835 80.8778C84.5029 83.2078 83.1367 85.417 81.7192 87.4709C79.1746 87.6952 76.5959 87.816 74 87.816C71.4213 87.816 68.8425 87.6952 66.315 87.4881C64.8976 85.4343 63.5143 83.2424 62.1822 80.9296C60.8843 78.6687 59.7059 76.3732 58.63 74.0605C59.6888 71.7477 60.8843 69.435 62.1651 67.1741C63.4972 64.8441 64.8634 62.6349 66.2809 60.581C68.8255 60.3567 71.4042 60.2359 74 60.2359C76.5788 60.2359 79.1575 60.3567 81.6851 60.5638C83.1025 62.6176 84.4858 64.8095 85.8179 67.1223C87.1158 69.3832 88.2942 71.6787 89.3701 73.9914C88.2942 76.3042 87.1158 78.6169 85.835 80.8778ZM91.3511 78.6342C92.2733 80.9469 93.0589 83.2596 93.7079 85.5033C91.4707 86.0556 89.1139 86.5216 86.6718 86.884C87.5086 85.5551 88.3454 84.1916 89.131 82.7936C89.9166 81.4129 90.6509 80.0149 91.3511 78.6342ZM74.0342 97.0497C72.446 95.3928 70.8577 93.5461 69.2866 91.5268C70.8236 91.5958 72.3947 91.6476 73.983 91.6476C75.5883 91.6476 77.1765 91.6131 78.7306 91.5268C77.1936 93.5461 75.6054 95.3928 74.0342 97.0497ZM61.3283 86.884C58.9033 86.5216 56.5636 86.0729 54.3264 85.5206C54.9583 83.2941 55.7439 80.9987 56.6319 78.7032C57.3321 80.0839 58.0664 81.4647 58.8691 82.8454C59.6718 84.2261 60.4915 85.5723 61.3283 86.884ZM73.9488 50.9677C75.5371 52.6246 77.1253 54.4713 78.6964 56.4906C77.1594 56.4216 75.5883 56.3698 74 56.3698C72.3947 56.3698 70.8065 56.4043 69.2524 56.4906C70.7894 54.4713 72.3777 52.6246 73.9488 50.9677ZM61.3112 61.1333C60.4744 62.4623 59.6376 63.8258 58.852 65.2238C58.0664 66.6045 57.3321 67.9852 56.6319 69.366C55.7097 67.0532 54.9241 64.7405 54.2752 62.4968C56.5124 61.9618 58.8691 61.4958 61.3112 61.1333ZM45.8558 82.7418C39.8103 80.1357 35.8994 76.7184 35.8994 74.0087C35.8994 71.299 39.8103 67.8644 45.8558 65.2755C47.3245 64.637 48.9298 64.0674 50.5864 63.5324C51.5598 66.9152 52.8406 70.436 54.4289 74.0432C52.8577 77.6331 51.594 81.1367 50.6376 84.5023C48.9469 83.9672 47.3416 83.3804 45.8558 82.7418ZM55.0437 107.405C52.7211 106.059 51.7135 100.933 52.4991 94.34C52.6869 92.7177 52.9943 91.009 53.37 89.2658C56.7173 90.0943 60.3719 90.7328 64.2145 91.1471C66.52 94.34 68.9109 97.2396 71.3188 99.7767C65.7515 105.006 60.5256 107.871 56.9735 107.871C56.205 107.854 55.556 107.699 55.0437 107.405ZM95.5523 94.2537C96.3549 100.847 95.3644 105.973 93.0589 107.336C92.5466 107.647 91.8805 107.785 91.0949 107.785C87.5598 107.785 82.3169 104.937 76.7496 99.7421C79.1405 97.205 81.5314 94.3228 83.8027 91.1298C87.6623 90.7156 91.317 90.077 94.6642 89.2313C95.057 90.9745 95.3644 92.6486 95.5523 94.2537ZM102.127 82.7418C100.659 83.3804 99.0532 83.95 97.3967 84.485C96.4232 81.1022 95.1424 77.5813 93.5541 73.9742C95.1253 70.3843 96.3891 66.8806 97.3454 63.5151C99.0361 64.0501 100.641 64.637 102.144 65.2755C108.19 67.8817 112.101 71.299 112.101 74.0087C112.084 76.7184 108.173 80.153 102.127 82.7418Z" fill="white"/>
<path d="M73.9823 81.8957C78.2926 81.8957 81.7869 78.3644 81.7869 74.0082C81.7869 69.6521 78.2926 66.1208 73.9823 66.1208C69.672 66.1208 66.1777 69.6521 66.1777 74.0082C66.1777 78.3644 69.672 81.8957 73.9823 81.8957Z" fill="white"/>
</g>
<defs>
<filter id="filter0_dd_6_228" x="2.87904" y="12.0001" width="142.242" height="142.242" filterUnits="userSpaceOnUse" color-interpolation-filters="sRGB">
<feFlood flood-opacity="0" result="BackgroundImageFix"/>
<feColorMatrix in="SourceAlpha" type="matrix" values="0 0 0 0 0 0 0 0 0 0 0 0 0 0 0 0 0 0 127 0" result="hardAlpha"/>
<feOffset dy="9.12096"/>
<feGaussianBlur stdDeviation="4.56048"/>
<feComposite in2="hardAlpha" operator="out"/>
<feColorMatrix type="matrix" values="0 0 0 0 0.027451 0 0 0 0 0.494118 0 0 0 0 0.854902 0 0 0 0.2 0"/>
<feBlend mode="normal" in2="BackgroundImageFix" result="effect1_dropShadow_6_228"/>
<feColorMatrix in="SourceAlpha" type="matrix" values="0 0 0 0 0 0 0 0 0 0 0 0 0 0 0 0 0 0 127 0" result="hardAlpha"/>
<feOffset dy="9.12096"/>
<feGaussianBlur stdDeviation="4.56048"/>
<feComposite in2="hardAlpha" operator="out"/>
<feColorMatrix type="matrix" values="0 0 0 0 0.0313726 0 0 0 0 0.639216 0 0 0 0 0.901961 0 0 0 0.1 0"/>
<feBlend mode="normal" in2="effect1_dropShadow_6_228" result="effect2_dropShadow_6_228"/>
<feBlend mode="normal" in="SourceGraphic" in2="effect2_dropShadow_6_228" result="shape"/>
</filter>
</defs>
</svg>
